<!DOCTYPE svg PUBLIC "-//W3C//DTD SVG 1.1//EN" "http://www.w3.org/Graphics/SVG/1.1/DTD/svg11.dtd">
<!-- Uploaded to: SVG Repo, www.svgrepo.com, Transformed by: SVG Repo Mixer Tools -->
<svg fill="#ffffff" width="800px" height="800px" viewBox="-30.72 -30.72 157.44 157.44" xmlns="http://www.w3.org/2000/svg" stroke="#ffffff" stroke-width="0.0009600000000000001">
<g id="SVGRepo_bgCarrier" stroke-width="0" transform="translate(2.8800000000000026,2.8800000000000026), scale(0.94)">
<rect x="-30.72" y="-30.72" width="157.44" height="157.44" rx="12.5952" fill="#000000" strokewidth="0"/>
</g>
<g id="SVGRepo_tracerCarrier" stroke-linecap="round" stroke-linejoin="round"/>
<g id="SVGRepo_iconCarrier">
<title/>
<path d="M90,12H6a5.9966,5.9966,0,0,0-6,6V78a5.9966,5.9966,0,0,0,6,6H90a5.9966,5.9966,0,0,0,6-6V18A5.9966,5.9966,0,0,0,90,12ZM84,24v2.5188L48,47.0918,12,26.5188V24ZM12,72V40.3381L45.0234,59.209a5.9961,5.9961,0,0,0,5.9532,0L84,40.3381V72Z"/>
</g>
</svg>